<?xml version="1.0" encoding="UTF-8"?>
<!DOCTYPE svg PUBLIC "-//W3C//DTD SVG 1.1//EN" "http://www.w3.org/Graphics/SVG/1.1/DTD/svg11.dtd">
<!-- Creator: CorelDRAW (Versão OEM) -->
<svg xmlns="http://www.w3.org/2000/svg" xml:space="preserve" width="42.3331mm" height="7.7681mm" version="1.1" style="shape-rendering:geometricPrecision; text-rendering:geometricPrecision; image-rendering:optimizeQuality; fill-rule:evenodd; clip-rule:evenodd"
viewBox="0 0 184.98 33.94"
 xmlns:xlink="http://www.w3.org/1999/xlink"
 xmlns:xodm="http://www.corel.com/coreldraw/odm/2003">
 <defs>
  <style type="text/css">
   <![CDATA[
    .fil0 {fill:#FEFEFE}
    .fil1 {fill:white;fill-rule:nonzero}
   ]]>
  </style>
 </defs>
 <g id="Camada_x0020_1">
  <metadata id="CorelCorpID_0Corel-Layer"/>
  <g id="_2816422507104">
   <path class="fil0" d="M12.27 4.31l-1.34 -1.23c-0.05,-0.05 -0.29,-0.28 -0.32,-0.29 0,-0.08 0.22,-1.07 0.25,-1.16l0.08 -0.39 1 -0.3c0.82,-0.24 1.68,-0.53 2.51,-0.77 0.09,-0.03 0.45,-0.15 0.51,-0.15l-1 1.6c-0.26,0.4 -0.57,0.92 -0.83,1.35 -0.07,0.12 -0.83,1.31 -0.84,1.36zm-4.12 5.87l0.01 0.44c0,0.07 0,0.15 -0,0.22 -0,0.09 0.01,0.13 0.01,0.22 0,0.31 0.02,0.59 0.02,0.89 0,0.29 0.03,0.58 0.02,0.88 -0,0.09 0.01,0.13 0.01,0.21 0,0.08 -0,0.16 -0,0.23 -0,0.09 0.01,0.13 0.01,0.22 -0,0.07 -0,0.16 -0,0.23l0.01 0.44c0.01,0.13 -0,0.3 0.02,0.43 0.02,0.12 0.01,0.32 0.02,0.43 0.01,0.07 0,0.16 0,0.23 -0,0.09 0.01,0.14 0.01,0.22 0,0.07 -0,0.15 -0,0.22 -0,0.09 0.01,0.13 0.01,0.22 -0,0.16 0.01,0.29 0.01,0.44 -0,0.45 0.04,0.88 0.04,1.33 -0,0.15 0.01,0.28 0.01,0.44 -0,0.09 0.01,0.12 0.01,0.21 0,0.08 -0,0.16 -0,0.23 0,0.08 0.01,0.12 0.01,0.22 0,0.07 -0.01,0.17 0,0.23 0.03,0.27 0,0.6 0.03,0.87l0.01 0.67c-0,0.09 0.01,0.13 0.01,0.22 -0,0.59 0.05,1.18 0.05,1.77 -0,0.15 0.01,0.28 0.01,0.44 -0,0.09 0.01,0.12 0.01,0.21 0,0.08 -0,0.16 -0,0.23 0,0.08 0.01,0.12 0.01,0.21l0.01 0.45c0,0.29 0.03,0.59 0.03,0.88l0.03 0.66c0,0.08 -0,0.16 -0,0.23 0,0.08 0.01,0.12 0.01,0.22 -0,0.3 0.02,0.59 0.02,0.88 0,0.3 0.03,0.59 0.02,0.89 -0,0.09 0.01,0.13 0.01,0.21 0,0.08 -0,0.16 -0,0.23 0,0.08 0.01,0.12 0.01,0.21l0.01 0.44c-0,0.17 -0,0.53 0.02,0.68 0.02,0.12 0.01,0.32 0.02,0.43 0.01,0.06 0,0.15 0,0.22l0.01 0.44c-0,0.09 0.01,0.13 0.01,0.22 -0,0.17 0.01,0.3 0.01,0.45 -0,0.31 0.02,0.22 -0.3,0.6 -0.03,0.04 -0.06,0.08 -0.09,0.12 -0.24,0.28 -0.47,0.59 -0.7,0.88 -0.17,0.21 -0.34,0.42 -0.51,0.63l-5.33 -11.56 0 0 -1.87 -4.06c0.06,-0.09 0.12,-0.19 0.18,-0.28 0.04,-0.06 0.07,-0.12 0.11,-0.18l2.2 -3.48c0.16,-0.25 0.3,-0.48 0.46,-0.72 0.04,-0.07 0.07,-0.12 0.11,-0.18 0.04,-0.07 0.07,-0.12 0.14,-0.16l1.23 -0.69c0.03,-0.02 0.07,-0.03 0.1,-0.05 0.04,-0.02 0.05,-0.03 0.1,-0.06l2.94 -1.64c0.04,-0.02 0.06,-0.03 0.1,-0.05 0.12,-0.06 0.38,-0.24 0.48,-0.26zm1.03 -0.85l-5.46 2.08c-0.02,0.01 -0.04,0.02 -0.06,0.02 0.01,-0.07 0.09,-0.34 0.12,-0.43 0.19,-0.7 0.44,-1.44 0.62,-2.13 0.15,-0.54 0.35,-1.16 0.5,-1.71 0.1,-0.37 0.27,-0.9 0.38,-1.29l1 -3.43c0.02,-0.05 0.08,-0.07 0.15,-0.11l0.52 -0.3c0.06,-0.04 0.12,-0.07 0.18,-0.1l2.95 -1.72c-0.01,0.09 -0.52,2.39 -0.59,2.72l-0.2 0.92c-0.07,0.3 -0.13,0.61 -0.2,0.9 -0.04,0.16 -0.06,0.3 -0.1,0.45l-0.79 3.64c-0.02,0.08 -0.01,0.08 -0.13,0.15 -0.07,0.03 -0.12,0.07 -0.18,0.1l-0.26 0.15c-0.03,0.02 -0.06,0.03 -0.09,0.05l-0.97 0.54c-0.03,0.02 -0.06,0.03 -0.09,0.05 -0.06,0.04 -0.11,0.06 -0.17,0.1l-1.76 0.98c-0.21,0.11 -0.5,0.29 -0.71,0.4 -0.04,0.02 -0.09,0.05 -0.13,0.07l5.46 -2.08c0,-0.1 0.05,-0.23 0.07,-0.33l0.36 -1.66c0.05,-0.23 0.09,-0.45 0.15,-0.68 0.16,-0.66 0.29,-1.33 0.43,-1.99 0.03,-0.12 0.05,-0.22 0.07,-0.34 0.02,-0.11 0.07,-0.23 0.07,-0.34 0.1,0.07 0.17,0.16 0.27,0.24l1.27 1.17c0.12,0.1 0.21,0.21 0.34,0.31 0.05,0.04 0.08,0.08 0.13,0.12l0.33 0.31c0.03,0.03 0.04,0.03 0.07,0.06l0.4 0.37c0.03,0.03 0.04,0.03 0.07,0.06l0.26 0.25c0.03,0.03 0.04,0.04 0.07,0.07l0.87 0.8c0.03,0.02 0.04,0.04 0.06,0.06 0.12,0.13 0.35,0.3 0.47,0.43l0.53 0.5c0.2,0.19 0.41,0.36 0.6,0.55l2.02 1.86c0.03,0.02 0.04,0.04 0.06,0.06l0.21 0.19c0.13,0.12 0.28,0.25 0.4,0.37l0.14 0.13c-0.05,0.11 -0.09,0.25 -0.14,0.36l-0.69 1.83c-0.05,0.12 -0.09,0.24 -0.14,0.36 -0.02,0.06 -0.05,0.12 -0.07,0.18 -0.02,0.06 -0.06,0.14 -0.07,0.19 -0.17,-0.08 -0.36,-0.15 -0.53,-0.22 -0.18,-0.08 -0.36,-0.15 -0.53,-0.23 -0.36,-0.15 -0.72,-0.31 -1.08,-0.45 -0.81,-0.33 -1.6,-0.68 -2.41,-1.01l-2.41 -1.01c-0.41,-0.18 -0.95,-0.38 -1.34,-0.57 -0.09,-0.04 -0.19,-0.09 -0.28,-0.11 0,-0.64 -0.05,-1.25 -0.05,-1.9z"/>
   <polygon class="fil1" points="44.51,33.73 37.3,22.69 44.09,14.9 38.55,14.9 31.68,22.8 31.68,14.9 26.91,14.9 26.91,33.73 31.68,33.73 31.68,29.14 34.03,26.45 38.79,33.73 "/>
   <path id="_1" class="fil1" d="M59.91 33.73l5.09 0 -7.68 -18.82 -4.91 0 -7.86 18.82 4.91 0 1.28 -3.33 7.91 0 1.25 3.33zm-7.73 -7.09l2.56 -6.71 2.51 6.71 -5.07 0z"/>
   <polygon id="_2" class="fil1" points="66.65,14.9 66.65,33.73 71.12,33.73 71.12,22.45 79.42,33.73 83.6,33.73 83.6,14.9 79.16,14.9 79.16,26.24 70.86,14.9 "/>
   <path id="_3" class="fil1" d="M99.3 28.87c-1.1,0.56 -2.25,0.89 -3.16,0.89 -2.98,0 -5.22,-2.34 -5.22,-5.42 0,-3.06 2.22,-5.4 5.17,-5.4 1.67,0 3.53,0.81 4.83,2.07l2.72 -3.44c-1.88,-1.72 -4.78,-2.79 -7.52,-2.79 -5.8,0 -10.11,4.08 -10.11,9.56 0,5.48 4.2,9.61 9.79,9.61 2.56,0 5.67,-1.02 7.63,-2.42l0 -7.41 -4.13 0 0 4.75z"/>
   <path id="_4" class="fil1" d="M120.03 33.73l5.09 0 -7.68 -18.82 -4.91 0 -7.86 18.82 4.91 0 1.28 -3.33 7.91 0 1.25 3.33zm-7.73 -7.09l2.56 -6.71 2.51 6.71 -5.07 0z"/>
   <path id="_5" class="fil1" d="M143.17 33.73l-3.81 -6.15c2.12,-1.13 3.26,-3.22 3.26,-6.07 0,-4.19 -2.77,-6.61 -7.63,-6.61l-8.23 0 0 18.82 4.78 0 0 -5.21 3.45 0 0.1 0 2.66 5.21 5.41 0zm-11.62 -14.9l3.47 0c1.93,0 3.06,0.99 3.06,2.85 0,1.91 -1.12,2.93 -3.06,2.93l-3.47 0 0 -5.77z"/>
   <path id="_6" class="fil1" d="M154.4 14.77c-5.67,0 -9.9,4.05 -9.9,9.53 0,5.5 4.23,9.64 9.9,9.64 5.67,0 9.9,-4.14 9.9,-9.64 0,-5.45 -4.23,-9.53 -9.9,-9.53zm0.05 4.19c2.74,0 4.94,2.31 4.94,5.37 0,3.06 -2.19,5.42 -4.94,5.42 -2.72,0 -5.04,-2.36 -5.04,-5.42 0,-3.06 2.3,-5.37 5.04,-5.37z"/>
   <path id="_7" class="fil1" d="M175.08 14.77c-5.67,0 -9.9,4.05 -9.9,9.53 0,5.5 4.23,9.64 9.9,9.64 5.67,0 9.9,-4.14 9.9,-9.64 0,-5.45 -4.23,-9.53 -9.9,-9.53zm0.05 4.19c2.74,0 4.94,2.31 4.94,5.37 0,3.06 -2.19,5.42 -4.94,5.42 -2.72,0 -5.04,-2.36 -5.04,-5.42 0,-3.06 2.3,-5.37 5.04,-5.37z"/>
  </g>
 </g>
</svg>
